# xmcd CD database file
#
# Track frame offsets:
#	150
#	27175
#	46532
#	64700
#	79210
#	96760
#	117835
#	136592
#	154887
#	174357
#	192507
#
# Disc length: 2837 seconds
#
# Revision: 0
# Processed by: cddbd v1.5.1PL0 Copyright (c) Steve Scherf et al.
# Submitted via: CDex 1.51
#
DISCID=820b130b
DTITLE=Various Artist - Benetton Collection
DYEAR=1900
DGENRE=Other
TTITLE0=Bohemian Rhapsody
TTITLE1=That's Why I Call You My Friend
TTITLE2=Addams Groove
TTITLE3=How Do You Do!
TTITLE4=You Won't See Me Cry
TTITLE5=Calling You
TTITLE6=Porcelain
TTITLE7=It Ain't Over 'Til It's Over
TTITLE8=Shameless
TTITLE9=King Of Wishful Thinking
TTITLE10=Too Much Love Will Kill You
EXTD=
EXTT0=
EXTT1=
EXTT2=
EXTT3=
EXTT4=
EXTT5=
EXTT6=
EXTT7=
EXTT8=
EXTT9=
EXTT10=
PLAYORDER=
